<?xml version="1.0" encoding="UTF-8" standalone="no"?>
<svg
   xmlns:dc="http://purl.org/dc/elements/1.1/"
   xmlns:cc="http://creativecommons.org/ns#"
   xmlns:rdf="http://www.w3.org/1999/02/22-rdf-syntax-ns#"
   xmlns:svg="http://www.w3.org/2000/svg"
   xmlns="http://www.w3.org/2000/svg"
   viewBox="0 0 512 512"
   height="512"
   width="512"
   id="svg3713"
   version="1.1">
  <metadata
     id="metadata3719">
    <rdf:RDF>
      <cc:Work
         rdf:about="">
        <dc:format>image/svg+xml</dc:format>
        <dc:type
           rdf:resource="http://purl.org/dc/dcmitype/StillImage" />
        <dc:title></dc:title>
      </cc:Work>
    </rdf:RDF>
  </metadata>
  <defs
     id="defs3717" />
  <g
     id="g3734">
    <path
       id="path3723"
       style="fill:#020202"
       d="M 151.6893,437.92724 C 167.53519,426.54447 190.175,410.27529 202,401.77351 c 36.67808,-26.37031 42.5052,-29.60505 53,-29.42132 14.23391,0.24919 15.0001,0.6645 57.40314,31.1147 64.08557,46.02075 77.09155,55.17224 77.34203,54.42079 0.14981,-0.44944 -4.72662,-16.33032 -10.83653,-35.29083 -16.74896,-51.97606 -28.66042,-89.81733 -30.60014,-97.21295 -1.45965,-5.56525 -1.56108,-7.65769 -0.63364,-13.07207 1.67932,-9.80376 5.80642,-18.0322 11.73436,-23.39543 6.33426,-5.73086 42.43855,-32.69834 83.39866,-62.29321 l 31.14061,-22.5 -13.72424,-0.25395 C 452.67591,203.72957 419.725,203.20368 387,202.7006 c -37.71032,-0.57973 -60.78175,-1.31572 -63,-2.00975 -5.25966,-1.64561 -13.98,-8.11049 -18.65921,-13.83313 -3.90184,-4.77194 -5.53164,-9.23714 -26.33865,-72.16061 -12.19869,-36.890659 -22.49164,-67.073922 -22.87321,-67.073922 -0.38157,0 -10.3456,29.1375 -22.14228,64.750002 -11.79668,35.6125 -22.50219,66.87214 -23.79002,69.46586 -2.8815,5.80345 -11.43193,13.77573 -18.44687,17.19958 -4.60203,2.24615 -6.91544,2.62633 -18.74976,3.08126 -14.73693,0.56651 -80.090337,1.41205 -113.472222,1.46809 -20.479633,0.0344 -20.925899,0.0789 -19,1.89321 C 41.6125,206.50309 60.05,220.08197 81.5,235.65648 c 51.95306,37.7223 69.59645,51.13333 74.29941,56.47617 4.65574,5.2892 8.27874,14.59499 8.95312,22.99641 0.55827,6.95482 -1.22406,13.45943 -17.26101,62.99413 C 137.18595,409.95488 122,457.69691 122,458.26417 c 0,0.90413 2.57952,-0.86282 29.6893,-20.33693 z m -47.78218,50.26278 C 99.645457,485.7804 96,480.20363 96,476.09382 c 0,-5.17698 5.40733,-23.33089 26.50083,-88.97063 10.5618,-32.86673 19.10247,-60.76765 20.47185,-66.87808 1.48085,-6.60784 -0.13103,-11.47211 -5.391,-16.26881 C 132.28093,299.14241 106.9038,280.05713 64,248.63802 18.469389,215.29525 8.4721519,207.26048 6.5552899,202.46977 3.7150551,195.37132 7.6486539,186.7954 14.795486,184.50472 17.459161,183.65097 40.977211,183.1496 98.5,182.72028 l 80,-0.59709 4.8601,-2.48224 c 2.67306,-1.36524 5.66277,-3.50268 6.64382,-4.74987 0.98104,-1.24719 9.5081,-25.78018 18.94903,-54.51776 28.80055,-87.667048 32.47031,-98.188033 35.78945,-102.606237 6.76578,-9.006133 19.66748,-7.126736 25.1529,3.664037 1.03226,2.030637 12.55688,36.092068 25.61026,75.692068 13.05337,39.600002 24.56933,73.649362 25.59101,75.665242 1.37575,2.7145 3.35504,4.40055 7.63051,6.5 l 5.77292,2.83476 79.5,0.58467 c 90.31243,0.66419 86.77613,0.35447 90.65512,7.93999 5.99633,11.72608 4.98984,12.81006 -48.04066,51.73903 -43.83157,32.17617 -77.80771,57.6645 -82.61446,61.97599 l -4.5,4.03634 0.0968,7.86199 c 0.10265,8.33611 3.71774,20.9882 21.46907,75.13747 14.05591,42.87662 24.15047,76.78124 24.66662,82.84778 0.51814,6.09006 0.49889,6.14534 -3.55,10.19423 -4.37203,4.37203 -8.83628,5.85674 -14.12044,4.69614 -3.43106,-0.75359 -23.45824,-14.69956 -78.06205,-54.35868 -53.4544,-38.82431 -55.96167,-40.45725 -62.83974,-40.92639 -4.52699,-0.30877 -6.51395,0.0802 -9.92413,1.94268 -2.34512,1.28082 -31.02554,21.67876 -63.73426,45.32876 -32.70872,23.65 -61.48876,44.06623 -63.95566,45.3694 -5.5937,2.95495 -12.15545,3.66714 -15.63909,1.69743 z" />
    <path
       style="fill:#ffffff;stroke-width:0.89613533"
       d="m 125.19782,455.37124 c 0,-0.6711 0.98443,-4.24602 2.18762,-7.94425 6.51083,-20.01233 34.8241,-109.16473 36.8563,-116.05258 5.55644,-18.83273 1.62271,-33.93958 -11.81322,-45.36679 -6.59767,-5.61129 -28.66786,-22.18115 -59.49157,-44.66508 C 79.87578,231.81525 63.15078,219.54337 55.7703,214.07169 l -13.41906,-9.9485 12.97099,-0.55949 c 7.13405,-0.30773 29.50469,-0.63066 49.71255,-0.71764 20.20785,-0.087 47.13341,-0.48944 59.83459,-0.89437 l 23.09303,-0.73622 5.6658,-2.78926 c 6.5936,-3.24602 12.96909,-8.5917 16.68067,-13.98631 2.59166,-3.76684 7.02953,-16.40151 34.62495,-98.57754 6.61509,-19.699011 12.36372,-36.152657 12.77473,-36.563657 0.41099,-0.411001 9.90347,26.594416 21.09439,60.012037 25.76614,76.94121 24.42709,73.52451 31.5761,80.56872 3.35271,3.30356 8.0163,6.75949 11.30256,8.37572 l 5.59474,2.75156 47.94324,0.93864 c 26.36878,0.51624 59.37001,1.21744 73.33607,1.55822 l 25.39284,0.61959 -32.11385,23.29117 c -42.24924,30.64204 -76.89813,56.64278 -81.59905,61.2324 -7.03097,6.86453 -12.80373,22.47858 -11.49,31.07789 0.75734,4.95738 2.55587,10.83668 23.51666,76.87516 10.13499,31.93096 18.20368,58.27987 17.93043,58.55311 -0.68674,0.68674 -5.52422,-2.66112 -57.09146,-39.51122 -48.67895,-34.7861 -56.9738,-40.3273 -64.00752,-42.7589 -6.10635,-2.11099 -16.24157,-2.10275 -22.27584,0.0181 -5.68178,1.99698 -16.24305,8.46566 -30.65866,18.77815 -5.9165,4.2325 -27.69422,19.84475 -48.39495,34.69391 -44.39911,31.8486 -42.56643,30.6001 -42.56643,28.99827 z"
       id="path3725" />
  </g>
</svg>
